<svg xmlns="http://www.w3.org/2000/svg" xmlns:xlink="http://www.w3.org/1999/xlink" width="1200" zoomAndPan="magnify" viewBox="0 0 900 359.999987" height="480" preserveAspectRatio="xMidYMid meet" version="1.0"><defs><g/><clipPath id="4c4657fc1e"><path d="M 49.285156 135 L 131 135 L 131 248 L 49.285156 248 Z M 49.285156 135 " clip-rule="nonzero"/></clipPath><clipPath id="f4a089e22c"><path d="M 123 111.691406 L 129 111.691406 L 129 131 L 123 131 Z M 123 111.691406 " clip-rule="nonzero"/></clipPath><clipPath id="b29df1faed"><path d="M 0.0390625 45 L 98 45 L 98 164 L 0.0390625 164 Z M 0.0390625 45 " clip-rule="nonzero"/></clipPath><clipPath id="646936ab78"><rect x="0" width="625" y="0" height="223"/></clipPath></defs><path fill="#1e4ea5" d="M 190.769531 241.027344 C 190.472656 225.359375 190.160156 209.695312 189.867188 194.027344 C 189.71875 186.292969 189.570312 178.5625 189.421875 170.832031 C 189.292969 164.128906 189.460938 157.226562 187.804688 150.671875 C 186.292969 144.707031 183.015625 139.53125 177.917969 136.035156 C 173.296875 132.867188 167.496094 131.285156 161.917969 131.5625 C 150.226562 132.152344 139.183594 140.96875 135.519531 152.035156 C 133.347656 158.570312 137.027344 164.71875 143.066406 167.40625 C 143.839844 167.753906 144.632812 168.011719 145.421875 168.234375 C 145.277344 170 145.109375 171.769531 144.964844 173.535156 C 144.945312 173.8125 145.035156 174.105469 145.183594 174.382812 C 145.074219 179.152344 144.871094 183.902344 144.578125 188.652344 C 143.933594 189.039062 143.289062 189.441406 142.644531 189.828125 C 142.347656 190.011719 142.074219 190.179688 141.777344 190.363281 C 141.613281 189.757812 141.429688 189.167969 141.246094 188.558594 C 140.859375 187.382812 140.433594 186.203125 139.957031 185.0625 C 139.476562 183.902344 138.960938 182.761719 138.390625 181.65625 C 139.238281 180.164062 139.328125 178.339844 138.613281 176.722656 C 137.671875 174.640625 135.09375 173.167969 132.996094 174.585938 C 131.101562 175.855469 129.757812 178.929688 130.382812 181.160156 C 130.714844 182.316406 131.542969 183.3125 132.648438 183.789062 C 133.292969 184.066406 133.953125 184.121094 134.652344 183.992188 C 134.910156 183.9375 135.152344 183.863281 135.390625 183.773438 C 135.980469 184.859375 136.421875 186.128906 136.84375 187.214844 C 137.46875 188.855469 138.003906 190.546875 138.445312 192.242188 C 138.667969 193.105469 138.886719 193.972656 139.699219 194.488281 C 140.5625 195.039062 141.464844 194.890625 142.3125 194.414062 C 142.976562 194.027344 143.636719 193.621094 144.300781 193.21875 C 143.472656 204.945312 142.144531 216.632812 140.285156 228.25 C 140.230469 228.621094 140.269531 228.933594 140.378906 229.226562 C 139.898438 229.523438 139.53125 229.980469 139.457031 230.664062 C 139.257812 232.300781 137.15625 233.71875 136.308594 235.042969 C 135.261719 236.703125 135.078125 238.726562 136.164062 240.4375 C 137.433594 242.445312 139.972656 243.164062 142.164062 243.605469 C 145 244.15625 147.890625 244.398438 150.761719 244.527344 C 163.410156 245.042969 176.113281 245.097656 188.78125 245.058594 C 190.398438 245.058594 190.914062 243.328125 190.34375 242.242188 C 190.601562 241.949219 190.769531 241.542969 190.769531 241.027344 Z M 134.765625 177.734375 C 134.78125 177.714844 134.820312 177.753906 134.875 177.789062 C 134.78125 177.808594 134.707031 177.808594 134.765625 177.734375 Z M 133.972656 180.367188 C 133.660156 180.515625 133.824219 180.402344 133.972656 180.367188 Z M 135.167969 179.941406 C 135.039062 179.980469 134.910156 180 134.78125 180.054688 C 134.820312 180.035156 134.191406 180.292969 134.082031 180.328125 C 134.027344 180.183594 133.972656 180.183594 133.953125 179.925781 C 133.933594 179.464844 134.230469 178.984375 134.449219 178.597656 C 134.5625 178.414062 134.820312 178.101562 134.984375 177.863281 C 135.039062 177.917969 135.078125 177.972656 135.078125 177.972656 C 135.242188 178.15625 135.316406 178.359375 135.390625 178.582031 C 135.519531 179.042969 135.464844 179.558594 135.167969 179.941406 Z M 154.242188 240.917969 C 151.515625 240.863281 148.792969 240.789062 146.085938 240.496094 C 144.171875 240.273438 141.078125 240.179688 139.550781 238.765625 C 138.574219 237.863281 139.515625 236.738281 140.285156 235.890625 C 140.636719 235.816406 140.949219 235.671875 141.226562 235.394531 C 143.269531 233.332031 144.429688 230.425781 144.335938 227.515625 C 144.335938 227.3125 144.28125 227.109375 144.207031 226.90625 C 147.097656 208.109375 148.71875 189.113281 148.996094 170.09375 C 148.996094 170.058594 148.996094 170.019531 148.976562 169.964844 C 149.011719 169.578125 149.050781 169.191406 149.085938 168.804688 C 153.617188 169.0625 158.199219 167.71875 162.527344 166.097656 C 163.097656 166.210938 163.6875 166.023438 164.203125 165.601562 C 163.960938 165.785156 164.421875 165.453125 164.515625 165.398438 C 164.625 165.324219 164.734375 165.269531 164.847656 165.195312 C 165.03125 165.125 165.195312 165.050781 165.378906 164.996094 C 165.621094 164.902344 165.820312 164.753906 165.988281 164.609375 C 166.007812 164.609375 166.007812 164.589844 166.023438 164.589844 C 166.449219 164.421875 166.890625 164.292969 167.3125 164.183594 C 167.535156 164.128906 167.753906 164.074219 167.976562 164.035156 C 168.050781 164.019531 168.125 164.019531 168.195312 164 C 168.234375 164 168.324219 163.980469 168.398438 163.980469 C 168.859375 163.945312 169.300781 163.925781 169.761719 163.945312 C 169.984375 163.945312 170.222656 163.964844 170.441406 163.980469 C 170.460938 163.980469 170.554688 164 170.609375 164 C 170.683594 164.019531 170.773438 164.019531 170.792969 164.019531 C 171.140625 164.074219 171.472656 164.164062 171.824219 164.277344 C 171.804688 164.386719 171.785156 164.480469 171.75 164.589844 C 171.640625 165.03125 171.492188 165.453125 171.34375 165.878906 C 171.328125 165.914062 171.179688 166.300781 171.160156 166.355469 C 171.085938 166.523438 171.011719 166.6875 170.941406 166.855469 C 170.535156 167.699219 170.054688 168.492188 169.523438 169.265625 C 168.953125 170.058594 169.355469 171.363281 170.183594 171.804688 C 171.140625 172.304688 172.117188 171.988281 172.726562 171.144531 C 174.179688 169.082031 175.175781 166.6875 175.652344 164.203125 C 175.671875 164.164062 175.691406 164.148438 175.707031 164.109375 C 175.929688 163.667969 176.003906 163.136719 175.875 162.65625 C 175.984375 161.589844 175.984375 160.519531 175.890625 159.472656 C 175.800781 158.515625 175.101562 157.574219 174.03125 157.613281 C 173.09375 157.648438 172.082031 158.441406 172.171875 159.472656 C 172.210938 159.859375 172.230469 160.246094 172.230469 160.613281 C 169.265625 159.929688 166.171875 160.355469 163.484375 161.789062 C 158.089844 163.964844 151.886719 166.375 146.085938 164.644531 C 141.207031 163.171875 137.324219 158.828125 138.871094 153.542969 C 141.777344 143.621094 152.199219 135.484375 162.527344 135.261719 C 167.570312 135.152344 172.671875 136.714844 176.703125 139.773438 C 181.195312 143.179688 183.570312 148.242188 184.601562 153.691406 C 185.777344 159.800781 185.558594 166.191406 185.667969 172.394531 C 185.742188 176.5 185.832031 180.585938 185.90625 184.691406 C 185.667969 184.839844 185.464844 185.042969 185.300781 185.28125 C 182.941406 188.558594 180.292969 191.617188 177.4375 194.46875 C 175.246094 193.675781 172.6875 194.449219 171.289062 196.402344 C 169.578125 198.796875 170.296875 202.199219 172.523438 204.023438 C 174.75 205.847656 177.992188 205.921875 179.8125 203.488281 C 181.304688 201.519531 181.101562 199.109375 180.183594 196.992188 C 182.242188 194.910156 184.214844 192.71875 186.035156 190.417969 C 186.054688 191.429688 186.074219 192.425781 186.089844 193.4375 C 186.441406 209.269531 186.753906 225.140625 187.046875 241.027344 C 187.046875 241.140625 187.066406 241.25 187.085938 241.359375 C 176.148438 241.378906 165.195312 241.15625 154.242188 240.917969 Z M 177.164062 200.785156 C 176.792969 201.796875 175.929688 201.886719 175.101562 201.300781 C 174.273438 200.710938 173.71875 199.476562 174.328125 198.554688 C 174.933594 197.636719 175.910156 197.671875 176.738281 198.207031 C 177.164062 199.035156 177.457031 199.957031 177.164062 200.785156 Z M 177.164062 200.785156 " fill-opacity="1" fill-rule="nonzero"/><path fill="#1e4ea5" d="M 156.320312 146.269531 C 153.414062 145.867188 150.503906 146.03125 147.707031 146.933594 C 146.785156 147.226562 146.085938 148.242188 146.417969 149.214844 C 146.710938 150.136719 147.707031 150.835938 148.699219 150.503906 C 149.289062 150.320312 149.859375 150.15625 150.46875 150.046875 C 150.78125 149.972656 151.113281 149.917969 151.445312 149.878906 C 151.460938 149.878906 151.460938 149.878906 151.460938 149.878906 C 151.480469 149.878906 151.480469 149.878906 151.5 149.878906 C 151.664062 149.859375 151.832031 149.84375 151.996094 149.824219 C 152.601562 149.769531 153.210938 149.75 153.820312 149.769531 C 154.132812 149.769531 154.425781 149.789062 154.738281 149.804688 C 154.886719 149.824219 155.015625 149.824219 155.164062 149.84375 C 155.273438 149.859375 155.898438 149.933594 155.363281 149.859375 C 155.878906 149.933594 156.320312 149.953125 156.800781 149.675781 C 157.1875 149.457031 157.554688 149.015625 157.648438 148.574219 C 157.8125 147.6875 157.335938 146.417969 156.320312 146.269531 Z M 156.320312 146.269531 " fill-opacity="1" fill-rule="nonzero"/><path fill="#1e4ea5" d="M 177.476562 146.4375 C 177.4375 145.515625 176.648438 144.484375 175.617188 144.578125 C 173.074219 144.835938 170.535156 145.09375 167.996094 145.332031 C 167.496094 145.386719 167.054688 145.496094 166.6875 145.882812 C 166.375 146.199219 166.117188 146.730469 166.136719 147.191406 C 166.171875 148.113281 166.964844 149.144531 167.996094 149.050781 C 170.535156 148.792969 173.074219 148.535156 175.617188 148.296875 C 176.113281 148.242188 176.554688 148.128906 176.921875 147.742188 C 177.253906 147.429688 177.492188 146.898438 177.476562 146.4375 Z M 177.476562 146.4375 " fill-opacity="1" fill-rule="nonzero"/><path fill="#1e4ea5" d="M 80.417969 154.464844 C 82.808594 154.464844 82.808594 150.746094 80.417969 150.746094 C 78.023438 150.746094 78.023438 154.464844 80.417969 154.464844 Z M 80.417969 154.464844 " fill-opacity="1" fill-rule="nonzero"/><path fill="#1e4ea5" d="M 104.039062 151.40625 C 106.429688 151.40625 106.429688 147.6875 104.039062 147.6875 C 101.644531 147.707031 101.644531 151.40625 104.039062 151.40625 Z M 104.039062 151.40625 " fill-opacity="1" fill-rule="nonzero"/><g clip-path="url(#4c4657fc1e)"><path fill="#1e4ea5" d="M 120.144531 183.148438 C 116.335938 185.300781 116.039062 189.628906 116.5 193.53125 C 116.722656 195.5 117.144531 197.671875 116.484375 199.585938 C 116.464844 199.660156 116.316406 199.898438 116.242188 200.066406 C 116.132812 200.027344 116.023438 200.011719 115.910156 199.972656 C 115.488281 199.84375 115.082031 199.679688 114.660156 199.53125 C 113.296875 199.054688 111.953125 198.574219 110.589844 198.113281 C 110.535156 198.097656 110.460938 198.097656 110.40625 198.078125 C 110.148438 194.175781 109.984375 190.269531 109.855469 186.351562 C 109.890625 186.203125 109.910156 186.074219 109.890625 185.925781 C 109.875 185.6875 109.835938 185.449219 109.816406 185.226562 C 109.800781 184.765625 109.78125 184.304688 109.78125 183.847656 C 109.78125 183.535156 109.707031 183.277344 109.597656 183.035156 C 109.542969 182.519531 109.488281 181.988281 109.429688 181.472656 C 110.976562 181.046875 112.378906 180.328125 113.222656 178.820312 C 114.457031 176.628906 114.089844 173.941406 113.738281 171.566406 C 113.316406 168.640625 112.5625 165.804688 111.492188 163.042969 C 112.949219 162.121094 114.308594 161.035156 115.488281 159.746094 C 119.335938 155.53125 121.289062 149.472656 118.785156 144.097656 C 116.667969 139.53125 111.804688 137.15625 107.113281 136.109375 C 101.40625 134.839844 95.292969 134.96875 89.492188 135.464844 C 83.125 136.015625 76.699219 137.472656 71.285156 141.003906 C 66.773438 143.953125 63.167969 148.09375 60.570312 152.789062 C 55.160156 162.527344 53.613281 174.015625 53.023438 184.988281 C 52.121094 202.183594 52.839844 219.394531 53.90625 236.554688 C 53.683594 236.628906 53.484375 236.738281 53.261719 236.90625 C 51.511719 238.359375 49.855469 240.035156 49.578125 242.410156 C 49.339844 244.601562 50.445312 246.625 52.527344 247.433594 C 54.773438 248.28125 57.550781 247.839844 59.890625 247.785156 C 62.855469 247.710938 65.816406 247.601562 68.78125 247.488281 C 80.324219 247.011719 91.851562 246.257812 103.355469 245.1875 C 106.226562 244.929688 109.359375 244.929688 112.175781 244.214844 C 114.347656 243.640625 116.167969 242.28125 116.261719 239.90625 C 116.28125 239.277344 116.039062 238.820312 115.671875 238.523438 C 115.671875 238.433594 115.671875 238.320312 115.636719 238.230469 C 113.261719 226.300781 111.621094 214.261719 110.664062 202.144531 C 112.25 202.753906 113.851562 203.398438 115.46875 203.785156 C 117.898438 204.355469 119.390625 202.625 120.035156 200.507812 C 120.847656 197.875 120.273438 195.1875 120.035156 192.515625 C 120.21875 192.738281 120.421875 192.960938 120.660156 193.144531 C 122.117188 194.375 124.03125 194.984375 125.925781 194.632812 C 129.941406 193.863281 131.210938 189.074219 129.683594 185.722656 C 128.0625 182.003906 123.441406 181.289062 120.144531 183.148438 Z M 109.671875 177.421875 C 108.898438 178.066406 107.554688 178.121094 106.613281 178.285156 C 106.542969 178.304688 106.484375 178.304688 106.414062 178.324219 C 106.414062 178.230469 106.429688 178.140625 106.394531 178.046875 C 105.710938 174.734375 105.050781 171.417969 104.367188 168.085938 C 104.238281 167.480469 103.722656 167 103.117188 166.816406 C 104.847656 166.246094 106.578125 165.601562 108.214844 164.847656 C 108.988281 166.984375 109.597656 169.191406 109.984375 171.4375 C 110.242188 172.929688 111.089844 176.242188 109.671875 177.421875 Z M 112.101562 239.167969 C 112.175781 239.535156 112.320312 239.8125 112.523438 240.015625 C 112.027344 241.011719 107.332031 241.066406 106.742188 241.121094 C 103.890625 241.394531 101.035156 241.652344 98.183594 241.894531 C 92.273438 242.390625 86.363281 242.8125 80.433594 243.164062 C 74.507812 243.511719 68.597656 243.769531 62.667969 243.957031 C 60.035156 244.027344 57.164062 244.453125 54.570312 244.101562 C 51.347656 243.679688 54.863281 240.367188 55.894531 239.519531 C 56.132812 239.316406 56.300781 239.09375 56.390625 238.855469 C 57.109375 238.691406 57.699219 238.121094 57.644531 237.125 C 57.089844 228.363281 56.632812 219.582031 56.429688 210.816406 C 57.074219 211.203125 57.734375 211.554688 58.433594 211.847656 C 60.128906 212.785156 61.804688 213.761719 63.554688 214.554688 C 65.597656 215.492188 68.339844 215.4375 69.132812 212.898438 C 69.722656 211.019531 68.652344 208.976562 68.304688 207.136719 C 68.210938 206.636719 68.136719 206.140625 68.082031 205.644531 C 69.535156 206.691406 71.265625 207.28125 73.125 207.117188 C 77.289062 206.730469 81.0625 202.273438 79.441406 198.058594 C 78.042969 194.414062 73.679688 193.328125 70.253906 194.578125 C 68.671875 195.148438 67.4375 196.105469 66.5 197.285156 C 66.148438 197.175781 65.761719 197.136719 65.414062 197.25 C 64.382812 197.523438 63.921875 198.539062 64.125 199.53125 C 64.234375 200.121094 64.417969 200.691406 64.65625 201.261719 C 64.398438 202.386719 64.269531 203.5625 64.308594 204.742188 C 64.34375 206.121094 64.566406 207.523438 64.878906 208.867188 C 64.914062 209.011719 65.300781 210.558594 65.488281 211.351562 C 65.46875 211.351562 65.429688 211.351562 65.414062 211.332031 C 64.785156 211.09375 64.179688 210.6875 63.589844 210.375 C 63.09375 210.097656 62.597656 209.839844 62.097656 209.566406 C 61.859375 209.234375 61.546875 208.957031 61.105469 208.828125 C 60.738281 208.71875 60.386719 208.589844 60.035156 208.460938 C 59.777344 208.332031 59.523438 208.183594 59.265625 208.054688 C 59.097656 207.964844 58.933594 207.910156 58.765625 207.871094 C 58.175781 207.558594 57.605469 207.207031 57.074219 206.804688 C 56.890625 206.65625 56.703125 206.507812 56.539062 206.34375 C 56.484375 206.289062 56.410156 206.25 56.355469 206.195312 C 56.300781 202.386719 56.300781 198.574219 56.375 194.761719 C 56.574219 183.734375 57.035156 172.433594 60.589844 161.882812 C 63.882812 152.070312 70.363281 143.824219 80.5625 140.765625 C 86.34375 139.035156 92.457031 138.777344 98.441406 138.851562 C 102.933594 138.90625 107.8125 139.402344 111.734375 141.777344 C 116.722656 144.78125 117.253906 150.597656 114.238281 155.292969 C 110.609375 160.925781 103.578125 162.839844 97.519531 164.589844 C 97.042969 164.71875 96.710938 164.996094 96.507812 165.308594 C 96.324219 165.324219 96.140625 165.34375 95.917969 165.4375 C 93.359375 166.449219 90.800781 167.460938 88.261719 168.472656 C 86.015625 169.359375 83.453125 170.058594 81.484375 171.511719 C 79.734375 172.78125 78.519531 174.878906 78.925781 177.089844 C 79.332031 179.316406 81.226562 180.441406 83.269531 180.972656 C 88.5 182.355469 94.058594 182.851562 99.453125 182.667969 C 101.550781 182.59375 103.667969 182.410156 105.75 182.117188 C 105.859375 183.148438 105.96875 184.160156 106.082031 185.191406 C 106.578125 203.34375 108.585938 221.402344 112.101562 239.167969 Z M 68.652344 200.839844 C 69.078125 199.84375 69.683594 199.035156 70.585938 198.519531 C 71.582031 197.949219 72.941406 197.691406 73.898438 197.875 C 74.949219 198.078125 75.757812 198.5 76.035156 199.550781 C 76.347656 200.746094 75.574219 202.054688 74.582031 202.789062 C 72.316406 204.429688 69.960938 202.902344 68.652344 200.839844 Z M 100.777344 169.082031 C 101.441406 172.320312 102.085938 175.542969 102.75 178.785156 C 102.730469 178.785156 102.730469 178.785156 102.710938 178.785156 C 100.722656 178.96875 98.714844 179.003906 96.710938 178.96875 C 96.710938 178.894531 96.710938 178.820312 96.710938 178.746094 C 96.230469 176.464844 95.753906 174.164062 95.273438 171.878906 C 95.070312 170.941406 93.949219 170.316406 93.046875 170.574219 C 94.355469 170.058594 95.640625 169.542969 96.949219 169.027344 C 97.390625 168.859375 97.6875 168.566406 97.886719 168.253906 C 98.089844 168.269531 98.3125 168.253906 98.550781 168.179688 C 99.417969 167.921875 100.320312 167.664062 101.203125 167.40625 C 100.832031 167.847656 100.648438 168.4375 100.777344 169.082031 Z M 91.703125 172.875 C 92.125 174.863281 92.53125 176.832031 92.953125 178.820312 C 90.890625 178.65625 88.847656 178.378906 86.824219 177.972656 C 85.441406 177.695312 81.320312 177.347656 83.066406 175.082031 C 84.339844 173.425781 87.429688 172.800781 89.289062 172.0625 C 90.507812 171.585938 91.703125 171.105469 92.917969 170.628906 C 91.960938 170.996094 91.480469 171.878906 91.703125 172.875 Z M 126.40625 189.976562 C 125.890625 190.914062 125.152344 191.171875 124.105469 190.859375 C 123.9375 190.804688 123.679688 190.695312 123.367188 190.492188 C 123.292969 190.4375 122.964844 190.160156 122.761719 189.941406 C 122.90625 190.125 122.558594 189.515625 122.539062 189.535156 C 122.519531 189.460938 122.484375 189.351562 122.464844 189.296875 C 122.464844 189.167969 122.449219 188.78125 122.410156 189.039062 C 122.539062 188.117188 122.207031 187.234375 121.324219 186.867188 C 122.132812 186.164062 123.109375 185.796875 124.195312 185.851562 C 126.238281 185.945312 127.289062 188.355469 126.40625 189.976562 Z M 126.40625 189.976562 " fill-opacity="1" fill-rule="nonzero"/></g><path fill="#1e4ea5" d="M 118.066406 131.636719 C 118.601562 132.445312 119.742188 132.867188 120.605469 132.296875 C 121.417969 131.765625 121.839844 130.621094 121.269531 129.757812 C 118.542969 125.523438 115.359375 121.566406 111.789062 118.011719 C 111.105469 117.332031 109.835938 117.273438 109.15625 118.011719 C 108.472656 118.746094 108.417969 119.90625 109.15625 120.644531 C 112.617188 124.070312 115.46875 127.585938 118.066406 131.636719 Z M 118.066406 131.636719 " fill-opacity="1" fill-rule="nonzero"/><g clip-path="url(#f4a089e22c)"><path fill="#1e4ea5" d="M 126.460938 130.84375 C 127.417969 130.84375 128.375 129.996094 128.320312 128.984375 C 128.042969 123.828125 127.769531 118.691406 127.492188 113.539062 C 127.417969 112.542969 126.664062 111.695312 125.613281 111.695312 C 124.65625 111.695312 123.699219 112.542969 123.753906 113.554688 C 124.03125 118.710938 124.308594 123.847656 124.582031 129.003906 C 124.65625 129.996094 125.410156 130.84375 126.460938 130.84375 Z M 126.460938 130.84375 " fill-opacity="1" fill-rule="nonzero"/></g><path fill="#1e4ea5" d="M 133.953125 129.628906 C 135.003906 129.921875 135.886719 129.277344 136.238281 128.339844 C 137.820312 124.125 139.898438 120.054688 142.367188 116.226562 C 142.917969 115.378906 142.53125 114.183594 141.703125 113.683594 C 140.800781 113.152344 139.714844 113.5 139.164062 114.347656 C 136.53125 118.433594 134.359375 122.796875 132.664062 127.34375 C 132.316406 128.285156 133.050781 129.371094 133.953125 129.628906 Z M 133.953125 129.628906 " fill-opacity="1" fill-rule="nonzero"/><path fill="#1e4ea5" d="M 102.824219 204.960938 C 102.804688 202.570312 99.085938 202.570312 99.101562 204.960938 C 99.160156 213.6875 100.300781 222.398438 102.492188 230.867188 C 103.097656 233.183594 106.671875 232.191406 106.0625 229.871094 C 103.980469 221.734375 102.878906 213.375 102.824219 204.960938 Z M 102.824219 204.960938 " fill-opacity="1" fill-rule="nonzero"/><path fill="#1e4ea5" d="M 172.210938 233.277344 C 164.332031 233.386719 156.46875 232.835938 148.683594 231.566406 C 147.6875 231.398438 146.675781 231.824219 146.398438 232.855469 C 146.160156 233.738281 146.695312 234.972656 147.6875 235.136719 C 155.789062 236.445312 163.980469 237.089844 172.191406 236.976562 C 174.585938 236.960938 174.605469 233.242188 172.210938 233.277344 Z M 172.210938 233.277344 " fill-opacity="1" fill-rule="nonzero"/><g transform="matrix(1, 0, 0, 1, 233, 86)"><g clip-path="url(#646936ab78)"><g clip-path="url(#b29df1faed)"><g fill="#1e4ea5" fill-opacity="1"><g transform="translate(4.613519, 161.990303)"><g><path d="M 12.25 1.296875 C 16.09375 1.296875 19.453125 0.117188 22.328125 -2.234375 C 25.210938 -4.585938 27.566406 -7.734375 29.390625 -11.671875 C 29.585938 -12.242188 29.878906 -12.722656 30.265625 -13.109375 C 30.648438 -13.492188 32.039062 -13.6875 34.4375 -13.6875 L 45.109375 -13.546875 L 57.0625 -13.546875 C 59.375 -13.546875 60.960938 -12.441406 61.828125 -10.234375 C 63.648438 -6.578125 66.050781 -3.859375 69.03125 -2.078125 C 72.007812 -0.304688 75.035156 0.578125 78.109375 0.578125 C 80.992188 0.578125 83.632812 -0.09375 86.03125 -1.4375 C 88.4375 -2.78125 90.3125 -4.75 91.65625 -7.34375 C 92.613281 -9.363281 93.09375 -11.382812 93.09375 -13.40625 C 93.09375 -15.90625 92.179688 -19.457031 90.359375 -24.0625 C 87.859375 -30.59375 83.628906 -42.941406 77.671875 -61.109375 C 73.441406 -73.691406 69.742188 -84.28125 66.578125 -92.875 C 63.410156 -101.476562 60.578125 -107.363281 58.078125 -110.53125 C 54.523438 -114.46875 50.394531 -116.4375 45.6875 -116.4375 C 41.644531 -116.4375 37.992188 -114.898438 34.734375 -111.828125 C 34.148438 -111.253906 33.617188 -110.628906 33.140625 -109.953125 C 32.179688 -108.609375 30.40625 -104.71875 27.8125 -98.28125 C 26.5625 -95.394531 16.425781 -69.984375 -2.59375 -22.046875 C -3.550781 -19.546875 -4.03125 -17.050781 -4.03125 -14.5625 C -4.03125 -11.476562 -3.3125 -8.398438 -1.875 -5.328125 C -0.625 -2.828125 0.882812 -1.21875 2.65625 -0.5 C 4.4375 0.21875 6.144531 0.671875 7.78125 0.859375 L 8.9375 1.015625 C 10.09375 1.203125 11.195312 1.296875 12.25 1.296875 Z M 45.109375 -42.796875 C 43.472656 -42.796875 42.65625 -42.988281 42.65625 -43.375 C 43.132812 -44.332031 43.804688 -45.578125 44.671875 -47.109375 C 45.535156 -48.648438 46.207031 -50.046875 46.6875 -51.296875 C 46.976562 -51.296875 47.21875 -51.25 47.40625 -51.15625 C 48.175781 -48.851562 48.945312 -46.976562 49.71875 -45.53125 C 50.289062 -44.476562 50.578125 -43.757812 50.578125 -43.375 C 50.578125 -43.1875 50.484375 -43.09375 50.296875 -43.09375 Z M 45.109375 -42.796875 "/></g></g></g></g><g fill="#1e4ea5" fill-opacity="1"><g transform="translate(96.68909, 161.990303)"><g><path d="M 23.203125 2.453125 C 29.160156 2.453125 33.890625 0.648438 37.390625 -2.953125 C 40.898438 -6.554688 42.800781 -11.671875 43.09375 -18.296875 L 43.515625 -33.4375 C 43.515625 -34.007812 43.804688 -34.296875 44.390625 -34.296875 L 45.109375 -34.15625 C 45.972656 -33.476562 47.03125 -32.46875 48.28125 -31.125 C 50.007812 -29.300781 51.976562 -27.453125 54.1875 -25.578125 C 56.394531 -23.703125 58.75 -22.765625 61.25 -22.765625 C 63.257812 -22.960938 65.34375 -23.851562 67.5 -25.4375 C 69.664062 -27.019531 71.707031 -28.722656 73.625 -30.546875 C 75.550781 -32.378906 77.285156 -33.820312 78.828125 -34.875 L 79.6875 -35.15625 C 80.75 -35.15625 81.375 -34.675781 81.5625 -33.71875 L 81.421875 -31.421875 C 81.234375 -30.171875 81.140625 -28.773438 81.140625 -27.234375 C 81.515625 -19.929688 82.0625 -14.625 82.78125 -11.3125 C 83.507812 -8 84.929688 -5.238281 87.046875 -3.03125 C 90.691406 0.238281 94.820312 1.875 99.4375 1.875 C 102.695312 1.875 105.695312 0.988281 108.4375 -0.78125 C 111.175781 -2.5625 113.023438 -5.375 113.984375 -9.21875 L 114.140625 -9.796875 C 114.328125 -10.378906 114.519531 -11.289062 114.71875 -12.53125 C 115.863281 -19.164062 116.535156 -43.378906 116.734375 -85.171875 C 116.734375 -91.128906 116.515625 -95.785156 116.078125 -99.140625 C 115.648438 -102.503906 114.710938 -105.675781 113.265625 -108.65625 C 110.578125 -113.269531 106.640625 -115.578125 101.453125 -115.578125 C 98.859375 -115.578125 96.191406 -114.878906 93.453125 -113.484375 C 90.710938 -112.085938 88.191406 -109.804688 85.890625 -106.640625 C 77.335938 -94.628906 71.425781 -86.269531 68.15625 -81.5625 C 64.695312 -76.46875 62.65625 -73.703125 62.03125 -73.265625 C 61.414062 -72.835938 61.007812 -72.625 60.8125 -72.625 C 60.625 -72.625 60.359375 -72.769531 60.015625 -73.0625 C 59.679688 -73.351562 59.367188 -73.738281 59.078125 -74.21875 L 34.875 -108.796875 C 32.957031 -111.390625 30.796875 -113.285156 28.390625 -114.484375 C 25.984375 -115.691406 23.582031 -116.296875 21.1875 -116.296875 C 17.4375 -116.296875 14.21875 -114.898438 11.53125 -112.109375 C 9.800781 -110.378906 8.40625 -107.785156 7.34375 -104.328125 C 6.289062 -100.867188 5.664062 -94.960938 5.46875 -86.609375 C 5.46875 -52.796875 5.421875 -32.617188 5.328125 -26.078125 L 5.328125 -18.875 C 5.328125 -16.570312 5.375 -15.132812 5.46875 -14.5625 C 6.53125 -9.082031 8.957031 -4.875 12.75 -1.9375 C 16.550781 0.988281 20.035156 2.453125 23.203125 2.453125 Z M 23.203125 2.453125 "/></g></g></g><g fill="#1e4ea5" fill-opacity="1"><g transform="translate(220.609271, 161.990303)"><g><path d="M 22.046875 1.296875 C 25.410156 1.296875 28.582031 0.648438 31.5625 -0.640625 C 34.539062 -1.941406 36.960938 -4.320312 38.828125 -7.78125 C 40.703125 -11.238281 41.640625 -16.140625 41.640625 -22.484375 C 42.023438 -32.472656 42.21875 -43.425781 42.21875 -55.34375 C 42.21875 -76.757812 41.976562 -91.9375 41.5 -100.875 C 41.113281 -105.488281 39.21875 -109.304688 35.8125 -112.328125 C 32.40625 -115.359375 28.203125 -116.875 23.203125 -116.875 C 18.203125 -116.875 14.117188 -115.285156 10.953125 -112.109375 C 7.785156 -108.941406 5.957031 -104.8125 5.46875 -99.71875 C 5.28125 -98.28125 5.140625 -96.863281 5.046875 -95.46875 C 4.953125 -94.082031 4.878906 -92.332031 4.828125 -90.21875 C 4.773438 -88.101562 4.75 -85.023438 4.75 -80.984375 L 5.1875 -25.65625 L 5.046875 -21.765625 C 5.046875 -14.847656 6.242188 -9.273438 8.640625 -5.046875 C 11.046875 -0.816406 15.515625 1.296875 22.046875 1.296875 Z M 22.046875 1.296875 "/></g></g></g><g fill="#1e4ea5" fill-opacity="1"><g transform="translate(270.465517, 161.990303)"><g><path d="M 43.953125 1.015625 C 50.867188 1.015625 57.566406 -0.6875 64.046875 -4.09375 C 70.535156 -7.507812 75.867188 -12.554688 80.046875 -19.234375 C 84.234375 -25.910156 86.328125 -34.195312 86.328125 -44.09375 C 86.328125 -47.070312 85.796875 -49.859375 84.734375 -52.453125 C 82.910156 -56.296875 80.460938 -58.671875 77.390625 -59.578125 C 74.316406 -60.492188 71.289062 -60.953125 68.3125 -60.953125 L 65.140625 -60.953125 L 59.8125 -60.53125 C 55.96875 -60.144531 52.988281 -59.710938 50.875 -59.234375 C 48.375 -58.460938 46.28125 -56.921875 44.59375 -54.609375 C 42.914062 -52.304688 42.078125 -49.765625 42.078125 -46.984375 C 42.078125 -43.804688 43.519531 -40.875 46.40625 -38.1875 C 46.882812 -37.800781 47.363281 -37.175781 47.84375 -36.3125 C 48.320312 -35.445312 48.5625 -34.582031 48.5625 -33.71875 C 48.5625 -32.945312 48.367188 -32.394531 47.984375 -32.0625 C 47.597656 -31.726562 46.972656 -31.460938 46.109375 -31.265625 C 44.378906 -31.265625 42.457031 -32.804688 40.34375 -35.890625 C 38.332031 -39.347656 37.328125 -43.957031 37.328125 -49.71875 C 37.328125 -53.75 37.78125 -57.898438 38.6875 -62.171875 C 39.601562 -66.453125 41.164062 -70.082031 43.375 -73.0625 C 45.582031 -76.039062 48.609375 -77.53125 52.453125 -77.53125 C 55.335938 -77.53125 58.703125 -76.234375 62.546875 -73.640625 C 63.984375 -72.773438 65.566406 -72.34375 67.296875 -72.34375 C 70.179688 -72.34375 72.820312 -73.398438 75.21875 -75.515625 C 78.394531 -78.296875 79.984375 -82.1875 79.984375 -87.1875 C 79.984375 -95.0625 76.40625 -101.878906 69.25 -107.640625 C 62.09375 -113.410156 53.898438 -116.296875 44.671875 -116.296875 C 38.523438 -116.296875 32.425781 -114.640625 26.375 -111.328125 C 20.320312 -108.015625 15.035156 -102.5625 10.515625 -94.96875 C 3.503906 -82.769531 0 -69.753906 0 -55.921875 C 0 -46.210938 1.628906 -37.226562 4.890625 -28.96875 C 8.160156 -20.707031 12.535156 -13.984375 18.015625 -8.796875 C 21.566406 -5.523438 25.578125 -3.070312 30.046875 -1.4375 C 34.515625 0.195312 39.148438 1.015625 43.953125 1.015625 Z M 43.953125 1.015625 "/></g></g></g><g fill="#1e4ea5" fill-opacity="1"><g transform="translate(358.506486, 161.990303)"><g><path d="M 46.6875 2.734375 C 55.53125 2.734375 63.097656 0.359375 69.390625 -4.390625 C 75.679688 -9.148438 80.53125 -15.035156 83.9375 -22.046875 C 87.351562 -29.054688 89.0625 -36.019531 89.0625 -42.9375 C 89.726562 -53.03125 90.0625 -61.96875 90.0625 -69.75 C 90.0625 -75.613281 89.96875 -80.800781 89.78125 -85.3125 L 89.640625 -94.828125 C 89.640625 -99.429688 88.554688 -103.269531 86.390625 -106.34375 C 84.234375 -109.425781 81.6875 -111.710938 78.75 -113.203125 C 75.820312 -114.691406 73.15625 -115.4375 70.75 -115.4375 C 66.238281 -115.4375 62.226562 -113.414062 58.71875 -109.375 C 55.21875 -105.34375 53.320312 -100.6875 53.03125 -95.40625 C 52.738281 -85.125 52.59375 -75.421875 52.59375 -66.296875 C 52.59375 -56.679688 52.398438 -50.21875 52.015625 -46.90625 C 51.640625 -43.59375 50.34375 -41.9375 48.125 -41.9375 C 46.019531 -41.9375 44.703125 -43.445312 44.171875 -46.46875 C 43.640625 -49.5 43.375 -53.222656 43.375 -57.640625 L 43.375 -67.296875 L 43.234375 -74.5 L 43.375 -84.015625 C 43.375 -90.066406 42.796875 -95.300781 41.640625 -99.71875 C 41.160156 -100.875 40.441406 -102.410156 39.484375 -104.328125 C 35.734375 -111.535156 30.738281 -115.140625 24.5 -115.140625 C 15.945312 -115.140625 10.132812 -111.632812 7.0625 -104.625 C 4.5625 -98.957031 3.3125 -88.003906 3.3125 -71.765625 C 3.3125 -62.929688 3.648438 -53.753906 4.328125 -44.234375 C 4.609375 -39.429688 5.585938 -34.316406 7.265625 -28.890625 C 8.953125 -23.460938 11.453125 -18.367188 14.765625 -13.609375 C 18.085938 -8.859375 22.363281 -4.945312 27.59375 -1.875 C 32.832031 1.195312 39.195312 2.734375 46.6875 2.734375 Z M 46.6875 2.734375 "/></g></g></g><g fill="#1e4ea5" fill-opacity="1"><g transform="translate(454.47258, 161.990303)"><g><path d="M 30.984375 3.171875 C 35.117188 3.171875 39.96875 3.070312 45.53125 2.875 C 49.570312 2.78125 54.039062 2.707031 58.9375 2.65625 C 63.84375 2.613281 68.09375 1.128906 71.6875 -1.796875 C 75.289062 -4.734375 77.09375 -8.84375 77.09375 -14.125 C 77.09375 -19.40625 75.722656 -23.820312 72.984375 -27.375 C 70.253906 -30.9375 66.773438 -33.003906 62.546875 -33.578125 C 53.796875 -33.578125 46.925781 -33.625 41.9375 -33.71875 C 41.257812 -33.8125 40.847656 -34.144531 40.703125 -34.71875 C 40.566406 -35.300781 40.5 -36.070312 40.5 -37.03125 C 40.5 -38 40.59375 -38.671875 40.78125 -39.046875 C 40.976562 -39.429688 41.507812 -39.671875 42.375 -39.765625 C 43.238281 -39.867188 44.675781 -39.96875 46.6875 -40.0625 L 53.328125 -40.34375 C 54.566406 -40.34375 56.316406 -40.34375 58.578125 -40.34375 C 60.835938 -40.34375 63.117188 -40.679688 65.421875 -41.359375 C 70.609375 -42.898438 73.203125 -48.328125 73.203125 -57.640625 C 73.203125 -61.679688 72.4375 -64.660156 70.90625 -66.578125 C 68.3125 -69.648438 64.082031 -71.1875 58.21875 -71.1875 C 51.875 -71.1875 47.691406 -71.257812 45.671875 -71.40625 C 43.660156 -71.550781 42.460938 -71.863281 42.078125 -72.34375 C 41.691406 -72.820312 41.5 -73.539062 41.5 -74.5 L 41.5 -75.078125 L 41.359375 -77.390625 C 41.359375 -78.054688 41.789062 -78.488281 42.65625 -78.6875 C 44.570312 -78.6875 47.40625 -78.828125 51.15625 -79.109375 C 56.0625 -79.492188 60.382812 -79.6875 64.125 -79.6875 C 68.445312 -79.6875 71.664062 -80.789062 73.78125 -83 C 77.050781 -86.457031 78.6875 -90.925781 78.6875 -96.40625 C 78.6875 -101.5 77.582031 -105.488281 75.375 -108.375 C 71.144531 -113.5625 64.414062 -116.15625 55.1875 -116.15625 L 20.609375 -116.15625 C 11.378906 -115.570312 6.285156 -111.773438 5.328125 -104.765625 C 5.140625 -103.234375 5.046875 -98.382812 5.046875 -90.21875 C 5.046875 -85.789062 5.066406 -81.269531 5.109375 -76.65625 C 5.160156 -72.050781 5.207031 -68.160156 5.25 -64.984375 C 5.300781 -61.816406 5.375 -60.234375 5.46875 -60.234375 L 5.328125 -30.84375 C 5.328125 -20.945312 5.851562 -13.570312 6.90625 -8.71875 C 7.96875 -3.863281 10.320312 -0.671875 13.96875 0.859375 C 17.625 2.398438 23.296875 3.171875 30.984375 3.171875 Z M 30.984375 3.171875 "/></g></g></g><g fill="#1e4ea5" fill-opacity="1"><g transform="translate(536.029359, 161.990303)"><g><path d="M 38.1875 2.15625 C 48.945312 1.875 57.757812 -0.113281 64.625 -3.8125 C 71.5 -7.507812 76.566406 -12.289062 79.828125 -18.15625 C 83.097656 -24.019531 84.734375 -30.070312 84.734375 -36.3125 C 84.734375 -43.519531 82.71875 -50.34375 78.6875 -56.78125 C 73.78125 -64.46875 66.285156 -69.609375 56.203125 -72.203125 C 52.648438 -73.066406 49.332031 -74.363281 46.25 -76.09375 C 43.175781 -77.820312 41.5 -80.703125 41.21875 -84.734375 C 41.3125 -85.691406 41.691406 -86.554688 42.359375 -87.328125 C 43.035156 -88.097656 43.710938 -88.484375 44.390625 -88.484375 C 45.253906 -88.285156 45.925781 -87.515625 46.40625 -86.171875 C 46.882812 -84.828125 48.082031 -82.8125 50 -80.125 C 52.59375 -76.664062 56.195312 -74.9375 60.8125 -74.9375 C 63.40625 -74.9375 65.878906 -75.5625 68.234375 -76.8125 C 70.585938 -78.0625 72.390625 -79.863281 73.640625 -82.21875 C 74.890625 -84.570312 75.515625 -87.046875 75.515625 -89.640625 C 75.515625 -93.578125 74.335938 -97.441406 71.984375 -101.234375 C 69.628906 -105.023438 66.484375 -108.21875 62.546875 -110.8125 C 56.492188 -114.46875 49.910156 -116.296875 42.796875 -116.296875 C 34.628906 -116.296875 26.820312 -113.84375 19.375 -108.9375 C 11.9375 -104.039062 6.773438 -96.550781 3.890625 -86.46875 C 3.210938 -83.78125 2.875 -81.28125 2.875 -78.96875 C 2.875 -66.957031 11.140625 -56.820312 27.671875 -48.5625 C 29.492188 -47.507812 30.742188 -46.742188 31.421875 -46.265625 C 37.367188 -42.222656 40.34375 -38.859375 40.34375 -36.171875 C 40.34375 -35.210938 39.984375 -34.46875 39.265625 -33.9375 C 38.546875 -33.40625 37.707031 -33.140625 36.75 -33.140625 C 35.3125 -33.140625 34.015625 -33.765625 32.859375 -35.015625 C 26.710938 -41.546875 21.046875 -44.8125 15.859375 -44.8125 C 11.910156 -44.8125 8.566406 -43.347656 5.828125 -40.421875 C 3.097656 -37.492188 1.734375 -33.675781 1.734375 -28.96875 C 1.734375 -21.46875 5.476562 -13.878906 12.96875 -6.203125 C 17.382812 -2.160156 23.914062 0.429688 32.5625 1.578125 C 35.738281 1.960938 37.613281 2.15625 38.1875 2.15625 Z M 38.1875 2.15625 "/></g></g></g></g></g></svg>